<svg width="628" height="191" viewBox="0 0 628 191" fill="none" xmlns="http://www.w3.org/2000/svg">
<rect width="628" height="191" rx="8" fill="#BEF3C0"/>
<circle cx="552" cy="92" r="28" fill="white"/>
<path d="M561.457 92.7071C561.848 92.3166 561.848 91.6834 561.457 91.2929L555.093 84.9289C554.703 84.5384 554.069 84.5384 553.679 84.9289C553.288 85.3195 553.288 85.9526 553.679 86.3431L559.336 92L553.679 97.6569C553.288 98.0474 553.288 98.6805 553.679 99.0711C554.069 99.4616 554.703 99.4616 555.093 99.0711L561.457 92.7071ZM543.25 93L560.75 93L560.75 91L543.25 91L543.25 93Z" fill="#1D2130"/>
<path d="M131.1 92.7773C131.1 92.0026 130.826 91.4102 130.279 91C129.732 90.5807 128.748 90.1432 127.326 89.6875C125.904 89.2227 124.779 88.7669 123.949 88.3203C121.689 87.099 120.559 85.4538 120.559 83.3848C120.559 82.3092 120.859 81.3522 121.461 80.5137C122.072 79.666 122.942 79.0052 124.072 78.5312C125.212 78.0573 126.488 77.8203 127.9 77.8203C129.322 77.8203 130.589 78.0801 131.701 78.5996C132.813 79.11 133.674 79.8346 134.285 80.7734C134.905 81.7122 135.215 82.7786 135.215 83.9727H131.113C131.113 83.0612 130.826 82.3548 130.252 81.8535C129.678 81.3431 128.871 81.0879 127.832 81.0879C126.829 81.0879 126.05 81.3021 125.494 81.7305C124.938 82.1497 124.66 82.7057 124.66 83.3984C124.66 84.0456 124.984 84.5879 125.631 85.0254C126.287 85.4629 127.249 85.873 128.516 86.2559C130.849 86.9577 132.549 87.8281 133.615 88.8672C134.682 89.9062 135.215 91.2005 135.215 92.75C135.215 94.4727 134.563 95.8262 133.26 96.8105C131.956 97.7858 130.202 98.2734 127.996 98.2734C126.465 98.2734 125.07 97.9954 123.812 97.4395C122.555 96.8743 121.593 96.1042 120.928 95.1289C120.271 94.1536 119.943 93.0234 119.943 91.7383H124.059C124.059 93.9349 125.371 95.0332 127.996 95.0332C128.971 95.0332 129.732 94.8372 130.279 94.4453C130.826 94.0443 131.1 93.4883 131.1 92.7773ZM146.316 98C146.134 97.6445 146.002 97.2025 145.92 96.6738C144.963 97.7402 143.719 98.2734 142.188 98.2734C140.738 98.2734 139.535 97.8542 138.578 97.0156C137.63 96.1771 137.156 95.1198 137.156 93.8438C137.156 92.276 137.735 91.0729 138.893 90.2344C140.059 89.3958 141.741 88.972 143.938 88.9629H145.756V88.1152C145.756 87.4316 145.578 86.8848 145.223 86.4746C144.876 86.0645 144.325 85.8594 143.568 85.8594C142.903 85.8594 142.379 86.0189 141.996 86.3379C141.622 86.6569 141.436 87.0944 141.436 87.6504H137.484C137.484 86.7936 137.749 86.0007 138.277 85.2715C138.806 84.5423 139.553 83.9727 140.52 83.5625C141.486 83.1432 142.57 82.9336 143.773 82.9336C145.596 82.9336 147.041 83.3939 148.107 84.3145C149.183 85.2259 149.721 86.5111 149.721 88.1699V94.582C149.73 95.9857 149.926 97.0475 150.309 97.7676V98H146.316ZM143.049 95.252C143.632 95.252 144.17 95.1243 144.662 94.8691C145.154 94.6048 145.519 94.2539 145.756 93.8164V91.2734H144.279C142.301 91.2734 141.249 91.957 141.121 93.3242L141.107 93.5566C141.107 94.0488 141.281 94.4544 141.627 94.7734C141.973 95.0924 142.447 95.252 143.049 95.252ZM158.061 92.4082L160.795 83.207H165.033L159.086 100.297L158.758 101.076C157.874 103.008 156.415 103.975 154.383 103.975C153.809 103.975 153.225 103.888 152.633 103.715V100.721L153.234 100.734C153.982 100.734 154.538 100.62 154.902 100.393C155.276 100.165 155.568 99.7865 155.777 99.2578L156.242 98.041L151.061 83.207H155.312L158.061 92.4082ZM177.201 83.207L177.324 84.916C178.382 83.5944 179.799 82.9336 181.576 82.9336C183.144 82.9336 184.311 83.3939 185.076 84.3145C185.842 85.235 186.234 86.6113 186.252 88.4434V98H182.301V88.5391C182.301 87.7005 182.118 87.0944 181.754 86.7207C181.389 86.3379 180.783 86.1465 179.936 86.1465C178.824 86.1465 177.99 86.6204 177.434 87.5684V98H173.482V83.207H177.201ZM188.645 90.4668C188.645 88.9993 188.927 87.6914 189.492 86.543C190.057 85.3945 190.868 84.5059 191.926 83.877C192.992 83.248 194.227 82.9336 195.631 82.9336C197.627 82.9336 199.254 83.5443 200.512 84.7656C201.779 85.987 202.485 87.6458 202.631 89.7422L202.658 90.7539C202.658 93.0234 202.025 94.8464 200.758 96.2227C199.491 97.5898 197.791 98.2734 195.658 98.2734C193.525 98.2734 191.821 97.5898 190.545 96.2227C189.278 94.8555 188.645 92.9961 188.645 90.6445V90.4668ZM192.596 90.7539C192.596 92.1576 192.86 93.2331 193.389 93.9805C193.917 94.7188 194.674 95.0879 195.658 95.0879C196.615 95.0879 197.363 94.7233 197.9 93.9941C198.438 93.2559 198.707 92.0801 198.707 90.4668C198.707 89.0905 198.438 88.0241 197.9 87.2676C197.363 86.5111 196.606 86.1328 195.631 86.1328C194.665 86.1328 193.917 86.5111 193.389 87.2676C192.86 88.015 192.596 89.1771 192.596 90.7539ZM216.795 79.5703V83.207H219.324V86.1055H216.795V93.4883C216.795 94.0352 216.9 94.4271 217.109 94.6641C217.319 94.901 217.72 95.0195 218.312 95.0195C218.75 95.0195 219.137 94.9876 219.475 94.9238V97.918C218.7 98.1549 217.902 98.2734 217.082 98.2734C214.311 98.2734 212.898 96.8743 212.844 94.0762V86.1055H210.684V83.207H212.844V79.5703H216.795ZM220.5 90.4668C220.5 88.9993 220.783 87.6914 221.348 86.543C221.913 85.3945 222.724 84.5059 223.781 83.877C224.848 83.248 226.083 82.9336 227.486 82.9336C229.482 82.9336 231.109 83.5443 232.367 84.7656C233.634 85.987 234.34 87.6458 234.486 89.7422L234.514 90.7539C234.514 93.0234 233.88 94.8464 232.613 96.2227C231.346 97.5898 229.646 98.2734 227.514 98.2734C225.381 98.2734 223.676 97.5898 222.4 96.2227C221.133 94.8555 220.5 92.9961 220.5 90.6445V90.4668ZM224.451 90.7539C224.451 92.1576 224.715 93.2331 225.244 93.9805C225.773 94.7188 226.529 95.0879 227.514 95.0879C228.471 95.0879 229.218 94.7233 229.756 93.9941C230.294 93.2559 230.562 92.0801 230.562 90.4668C230.562 89.0905 230.294 88.0241 229.756 87.2676C229.218 86.5111 228.462 86.1328 227.486 86.1328C226.52 86.1328 225.773 86.5111 225.244 87.2676C224.715 88.015 224.451 89.1771 224.451 90.7539ZM257.236 90.7402C257.236 93.0189 256.717 94.8464 255.678 96.2227C254.648 97.5898 253.253 98.2734 251.494 98.2734C249.999 98.2734 248.792 97.7539 247.871 96.7148V103.688H243.92V83.207H247.584L247.721 84.6562C248.678 83.5078 249.926 82.9336 251.467 82.9336C253.29 82.9336 254.707 83.6081 255.719 84.957C256.73 86.306 257.236 88.1654 257.236 90.5352V90.7402ZM253.285 90.4531C253.285 89.0768 253.039 88.015 252.547 87.2676C252.064 86.5202 251.357 86.1465 250.428 86.1465C249.188 86.1465 248.336 86.6204 247.871 87.5684V93.625C248.354 94.6003 249.215 95.0879 250.455 95.0879C252.342 95.0879 253.285 93.543 253.285 90.4531ZM263.867 98H259.902V77H263.867V98ZM275.707 98C275.525 97.6445 275.393 97.2025 275.311 96.6738C274.354 97.7402 273.109 98.2734 271.578 98.2734C270.129 98.2734 268.926 97.8542 267.969 97.0156C267.021 96.1771 266.547 95.1198 266.547 93.8438C266.547 92.276 267.126 91.0729 268.283 90.2344C269.45 89.3958 271.132 88.972 273.328 88.9629H275.146V88.1152C275.146 87.4316 274.969 86.8848 274.613 86.4746C274.267 86.0645 273.715 85.8594 272.959 85.8594C272.294 85.8594 271.77 86.0189 271.387 86.3379C271.013 86.6569 270.826 87.0944 270.826 87.6504H266.875C266.875 86.7936 267.139 86.0007 267.668 85.2715C268.197 84.5423 268.944 83.9727 269.91 83.5625C270.876 83.1432 271.961 82.9336 273.164 82.9336C274.987 82.9336 276.432 83.3939 277.498 84.3145C278.574 85.2259 279.111 86.5111 279.111 88.1699V94.582C279.12 95.9857 279.316 97.0475 279.699 97.7676V98H275.707ZM272.439 95.252C273.023 95.252 273.561 95.1243 274.053 94.8691C274.545 94.6048 274.91 94.2539 275.146 93.8164V91.2734H273.67C271.692 91.2734 270.639 91.957 270.512 93.3242L270.498 93.5566C270.498 94.0488 270.671 94.4544 271.018 94.7734C271.364 95.0924 271.838 95.252 272.439 95.252ZM290.158 93.9121C290.158 93.429 289.917 93.0508 289.434 92.7773C288.96 92.4948 288.194 92.2441 287.137 92.0254C283.618 91.2871 281.859 89.7923 281.859 87.541C281.859 86.2285 282.402 85.1348 283.486 84.2598C284.58 83.3757 286.007 82.9336 287.766 82.9336C289.643 82.9336 291.143 83.3757 292.264 84.2598C293.394 85.1439 293.959 86.2923 293.959 87.7051H290.008C290.008 87.14 289.826 86.6751 289.461 86.3105C289.096 85.9368 288.527 85.75 287.752 85.75C287.087 85.75 286.572 85.9004 286.207 86.2012C285.842 86.502 285.66 86.8848 285.66 87.3496C285.66 87.7871 285.865 88.1426 286.275 88.416C286.695 88.6803 287.396 88.9128 288.381 89.1133C289.365 89.3047 290.195 89.5234 290.869 89.7695C292.956 90.5352 294 91.8613 294 93.748C294 95.097 293.421 96.1908 292.264 97.0293C291.106 97.8587 289.611 98.2734 287.779 98.2734C286.54 98.2734 285.437 98.0547 284.471 97.6172C283.514 97.1706 282.762 96.5645 282.215 95.7988C281.668 95.0241 281.395 94.1901 281.395 93.2969H285.141C285.177 93.9987 285.437 94.5365 285.92 94.9102C286.403 95.2839 287.05 95.4707 287.861 95.4707C288.618 95.4707 289.188 95.3294 289.57 95.0469C289.962 94.7552 290.158 94.377 290.158 93.9121ZM301.287 79.5703V83.207H303.816V86.1055H301.287V93.4883C301.287 94.0352 301.392 94.4271 301.602 94.6641C301.811 94.901 302.212 95.0195 302.805 95.0195C303.242 95.0195 303.63 94.9876 303.967 94.9238V97.918C303.192 98.1549 302.395 98.2734 301.574 98.2734C298.803 98.2734 297.391 96.8743 297.336 94.0762V86.1055H295.176V83.207H297.336V79.5703H301.287ZM310.188 98H306.223V83.207H310.188V98ZM305.99 79.3789C305.99 78.7865 306.186 78.2988 306.578 77.916C306.979 77.5332 307.521 77.3418 308.205 77.3418C308.88 77.3418 309.417 77.5332 309.818 77.916C310.219 78.2988 310.42 78.7865 310.42 79.3789C310.42 79.9805 310.215 80.4727 309.805 80.8555C309.404 81.2383 308.87 81.4297 308.205 81.4297C307.54 81.4297 307.002 81.2383 306.592 80.8555C306.191 80.4727 305.99 79.9805 305.99 79.3789ZM319.607 95.0879C320.337 95.0879 320.929 94.8874 321.385 94.4863C321.84 94.0853 322.077 93.5521 322.096 92.8867H325.801C325.792 93.8893 325.518 94.8099 324.98 95.6484C324.443 96.4779 323.704 97.125 322.766 97.5898C321.836 98.0456 320.806 98.2734 319.676 98.2734C317.561 98.2734 315.893 97.6035 314.672 96.2637C313.451 94.9147 312.84 93.0553 312.84 90.6855V90.4258C312.84 88.1471 313.446 86.3288 314.658 84.9707C315.87 83.6126 317.534 82.9336 319.648 82.9336C321.499 82.9336 322.98 83.4622 324.092 84.5195C325.213 85.5677 325.783 86.9668 325.801 88.7168H322.096C322.077 87.9512 321.84 87.3314 321.385 86.8574C320.929 86.3743 320.327 86.1328 319.58 86.1328C318.66 86.1328 317.962 86.4701 317.488 87.1445C317.023 87.8099 316.791 88.8945 316.791 90.3984V90.8086C316.791 92.3307 317.023 93.4245 317.488 94.0898C317.953 94.7552 318.66 95.0879 319.607 95.0879ZM343.889 96.4961C342.913 97.681 341.564 98.2734 339.842 98.2734C338.256 98.2734 337.044 97.8177 336.205 96.9062C335.376 95.9948 334.952 94.6595 334.934 92.9004V83.207H338.885V92.7637C338.885 94.304 339.587 95.0742 340.99 95.0742C342.33 95.0742 343.251 94.6094 343.752 93.6797V83.207H347.717V98H343.998L343.889 96.4961ZM358.709 93.9121C358.709 93.429 358.467 93.0508 357.984 92.7773C357.51 92.4948 356.745 92.2441 355.688 92.0254C352.169 91.2871 350.41 89.7923 350.41 87.541C350.41 86.2285 350.952 85.1348 352.037 84.2598C353.131 83.3757 354.557 82.9336 356.316 82.9336C358.194 82.9336 359.693 83.3757 360.814 84.2598C361.945 85.1439 362.51 86.2923 362.51 87.7051H358.559C358.559 87.14 358.376 86.6751 358.012 86.3105C357.647 85.9368 357.077 85.75 356.303 85.75C355.637 85.75 355.122 85.9004 354.758 86.2012C354.393 86.502 354.211 86.8848 354.211 87.3496C354.211 87.7871 354.416 88.1426 354.826 88.416C355.245 88.6803 355.947 88.9128 356.932 89.1133C357.916 89.3047 358.745 89.5234 359.42 89.7695C361.507 90.5352 362.551 91.8613 362.551 93.748C362.551 95.097 361.972 96.1908 360.814 97.0293C359.657 97.8587 358.162 98.2734 356.33 98.2734C355.09 98.2734 353.988 98.0547 353.021 97.6172C352.064 97.1706 351.312 96.5645 350.766 95.7988C350.219 95.0241 349.945 94.1901 349.945 93.2969H353.691C353.728 93.9987 353.988 94.5365 354.471 94.9102C354.954 95.2839 355.601 95.4707 356.412 95.4707C357.169 95.4707 357.738 95.3294 358.121 95.0469C358.513 94.7552 358.709 94.377 358.709 93.9121ZM373.68 98C373.497 97.6445 373.365 97.2025 373.283 96.6738C372.326 97.7402 371.082 98.2734 369.551 98.2734C368.102 98.2734 366.898 97.8542 365.941 97.0156C364.993 96.1771 364.52 95.1198 364.52 93.8438C364.52 92.276 365.098 91.0729 366.256 90.2344C367.423 89.3958 369.104 88.972 371.301 88.9629H373.119V88.1152C373.119 87.4316 372.941 86.8848 372.586 86.4746C372.24 86.0645 371.688 85.8594 370.932 85.8594C370.266 85.8594 369.742 86.0189 369.359 86.3379C368.986 86.6569 368.799 87.0944 368.799 87.6504H364.848C364.848 86.7936 365.112 86.0007 365.641 85.2715C366.169 84.5423 366.917 83.9727 367.883 83.5625C368.849 83.1432 369.934 82.9336 371.137 82.9336C372.96 82.9336 374.404 83.3939 375.471 84.3145C376.546 85.2259 377.084 86.5111 377.084 88.1699V94.582C377.093 95.9857 377.289 97.0475 377.672 97.7676V98H373.68ZM370.412 95.252C370.995 95.252 371.533 95.1243 372.025 94.8691C372.518 94.6048 372.882 94.2539 373.119 93.8164V91.2734H371.643C369.665 91.2734 368.612 91.957 368.484 93.3242L368.471 93.5566C368.471 94.0488 368.644 94.4544 368.99 94.7734C369.337 95.0924 369.811 95.252 370.412 95.252ZM379.545 90.4941C379.545 88.2246 380.083 86.3971 381.158 85.0117C382.243 83.6263 383.701 82.9336 385.533 82.9336C387.156 82.9336 388.418 83.4896 389.32 84.6016L389.484 83.207H393.066V97.5078C393.066 98.8021 392.77 99.9277 392.178 100.885C391.594 101.842 390.77 102.571 389.703 103.072C388.637 103.574 387.388 103.824 385.957 103.824C384.872 103.824 383.815 103.605 382.785 103.168C381.755 102.74 380.976 102.184 380.447 101.5L382.197 99.0938C383.182 100.197 384.376 100.748 385.779 100.748C386.827 100.748 387.643 100.465 388.227 99.9004C388.81 99.3444 389.102 98.5514 389.102 97.5215V96.7285C388.19 97.7585 386.992 98.2734 385.506 98.2734C383.729 98.2734 382.288 97.5807 381.186 96.1953C380.092 94.8008 379.545 92.9551 379.545 90.6582V90.4941ZM383.496 90.7812C383.496 92.1211 383.765 93.1738 384.303 93.9395C384.84 94.696 385.579 95.0742 386.518 95.0742C387.721 95.0742 388.582 94.623 389.102 93.7207V87.5C388.573 86.5977 387.721 86.1465 386.545 86.1465C385.597 86.1465 384.85 86.5339 384.303 87.3086C383.765 88.0833 383.496 89.2409 383.496 90.7812ZM402.924 98.2734C400.755 98.2734 398.986 97.6081 397.619 96.2773C396.261 94.9466 395.582 93.1738 395.582 90.959V90.5762C395.582 89.0905 395.869 87.7643 396.443 86.5977C397.018 85.4219 397.829 84.5195 398.877 83.8906C399.934 83.2526 401.137 82.9336 402.486 82.9336C404.51 82.9336 406.1 83.5716 407.258 84.8477C408.424 86.1237 409.008 87.9329 409.008 90.2754V91.8887H399.588C399.715 92.8548 400.098 93.6296 400.736 94.2129C401.383 94.7962 402.199 95.0879 403.184 95.0879C404.706 95.0879 405.895 94.5365 406.752 93.4336L408.693 95.6074C408.101 96.446 407.299 97.1022 406.287 97.5762C405.275 98.041 404.154 98.2734 402.924 98.2734ZM402.473 86.1328C401.689 86.1328 401.051 86.3971 400.559 86.9258C400.076 87.4544 399.766 88.2109 399.629 89.1953H405.125V88.8809C405.107 88.0059 404.87 87.3314 404.414 86.8574C403.958 86.3743 403.311 86.1328 402.473 86.1328ZM426.809 98C426.626 97.6445 426.494 97.2025 426.412 96.6738C425.455 97.7402 424.211 98.2734 422.68 98.2734C421.23 98.2734 420.027 97.8542 419.07 97.0156C418.122 96.1771 417.648 95.1198 417.648 93.8438C417.648 92.276 418.227 91.0729 419.385 90.2344C420.551 89.3958 422.233 88.972 424.43 88.9629H426.248V88.1152C426.248 87.4316 426.07 86.8848 425.715 86.4746C425.368 86.0645 424.817 85.8594 424.061 85.8594C423.395 85.8594 422.871 86.0189 422.488 86.3379C422.115 86.6569 421.928 87.0944 421.928 87.6504H417.977C417.977 86.7936 418.241 86.0007 418.77 85.2715C419.298 84.5423 420.046 83.9727 421.012 83.5625C421.978 83.1432 423.062 82.9336 424.266 82.9336C426.089 82.9336 427.533 83.3939 428.6 84.3145C429.675 85.2259 430.213 86.5111 430.213 88.1699V94.582C430.222 95.9857 430.418 97.0475 430.801 97.7676V98H426.809ZM423.541 95.252C424.124 95.252 424.662 95.1243 425.154 94.8691C425.646 94.6048 426.011 94.2539 426.248 93.8164V91.2734H424.771C422.794 91.2734 421.741 91.957 421.613 93.3242L421.6 93.5566C421.6 94.0488 421.773 94.4544 422.119 94.7734C422.465 95.0924 422.939 95.252 423.541 95.252ZM436.885 83.207L437.008 84.916C438.065 83.5944 439.482 82.9336 441.26 82.9336C442.827 82.9336 443.994 83.3939 444.76 84.3145C445.525 85.235 445.917 86.6113 445.936 88.4434V98H441.984V88.5391C441.984 87.7005 441.802 87.0944 441.438 86.7207C441.073 86.3379 440.467 86.1465 439.619 86.1465C438.507 86.1465 437.673 86.6204 437.117 87.5684V98H433.166V83.207H436.885ZM448.328 90.4941C448.328 88.1882 448.843 86.3516 449.873 84.9844C450.912 83.6172 452.329 82.9336 454.125 82.9336C455.565 82.9336 456.755 83.4714 457.693 84.5469V77H461.658V98H458.09L457.898 96.4277C456.914 97.6582 455.647 98.2734 454.098 98.2734C452.357 98.2734 450.958 97.5898 449.9 96.2227C448.852 94.8464 448.328 92.9368 448.328 90.4941ZM452.279 90.7812C452.279 92.1667 452.521 93.2285 453.004 93.9668C453.487 94.7051 454.189 95.0742 455.109 95.0742C456.331 95.0742 457.192 94.5592 457.693 93.5293V87.6914C457.201 86.6615 456.349 86.1465 455.137 86.1465C453.232 86.1465 452.279 87.6914 452.279 90.7812ZM128.529 135.912C128.529 135.429 128.288 135.051 127.805 134.777C127.331 134.495 126.565 134.244 125.508 134.025C121.99 133.287 120.23 131.792 120.23 129.541C120.23 128.229 120.773 127.135 121.857 126.26C122.951 125.376 124.378 124.934 126.137 124.934C128.014 124.934 129.514 125.376 130.635 126.26C131.765 127.144 132.33 128.292 132.33 129.705H128.379C128.379 129.14 128.197 128.675 127.832 128.311C127.467 127.937 126.898 127.75 126.123 127.75C125.458 127.75 124.943 127.9 124.578 128.201C124.214 128.502 124.031 128.885 124.031 129.35C124.031 129.787 124.236 130.143 124.646 130.416C125.066 130.68 125.768 130.913 126.752 131.113C127.736 131.305 128.566 131.523 129.24 131.77C131.327 132.535 132.371 133.861 132.371 135.748C132.371 137.097 131.792 138.191 130.635 139.029C129.477 139.859 127.982 140.273 126.15 140.273C124.911 140.273 123.808 140.055 122.842 139.617C121.885 139.171 121.133 138.564 120.586 137.799C120.039 137.024 119.766 136.19 119.766 135.297H123.512C123.548 135.999 123.808 136.536 124.291 136.91C124.774 137.284 125.421 137.471 126.232 137.471C126.989 137.471 127.559 137.329 127.941 137.047C128.333 136.755 128.529 136.377 128.529 135.912ZM143.5 140C143.318 139.645 143.186 139.202 143.104 138.674C142.146 139.74 140.902 140.273 139.371 140.273C137.922 140.273 136.719 139.854 135.762 139.016C134.814 138.177 134.34 137.12 134.34 135.844C134.34 134.276 134.919 133.073 136.076 132.234C137.243 131.396 138.924 130.972 141.121 130.963H142.939V130.115C142.939 129.432 142.762 128.885 142.406 128.475C142.06 128.064 141.508 127.859 140.752 127.859C140.087 127.859 139.562 128.019 139.18 128.338C138.806 128.657 138.619 129.094 138.619 129.65H134.668C134.668 128.794 134.932 128.001 135.461 127.271C135.99 126.542 136.737 125.973 137.703 125.562C138.669 125.143 139.754 124.934 140.957 124.934C142.78 124.934 144.225 125.394 145.291 126.314C146.367 127.226 146.904 128.511 146.904 130.17V136.582C146.913 137.986 147.109 139.048 147.492 139.768V140H143.5ZM140.232 137.252C140.816 137.252 141.354 137.124 141.846 136.869C142.338 136.605 142.702 136.254 142.939 135.816V133.273H141.463C139.485 133.273 138.432 133.957 138.305 135.324L138.291 135.557C138.291 136.049 138.464 136.454 138.811 136.773C139.157 137.092 139.631 137.252 140.232 137.252ZM155.258 135.174L158.006 125.207H162.135L157.145 140H153.371L148.381 125.207H152.51L155.258 135.174ZM170.502 140.273C168.333 140.273 166.564 139.608 165.197 138.277C163.839 136.947 163.16 135.174 163.16 132.959V132.576C163.16 131.09 163.447 129.764 164.021 128.598C164.596 127.422 165.407 126.52 166.455 125.891C167.512 125.253 168.715 124.934 170.064 124.934C172.088 124.934 173.678 125.572 174.836 126.848C176.003 128.124 176.586 129.933 176.586 132.275V133.889H167.166C167.294 134.855 167.676 135.63 168.314 136.213C168.962 136.796 169.777 137.088 170.762 137.088C172.284 137.088 173.473 136.536 174.33 135.434L176.271 137.607C175.679 138.446 174.877 139.102 173.865 139.576C172.854 140.041 171.732 140.273 170.502 140.273ZM170.051 128.133C169.267 128.133 168.629 128.397 168.137 128.926C167.654 129.454 167.344 130.211 167.207 131.195H172.703V130.881C172.685 130.006 172.448 129.331 171.992 128.857C171.536 128.374 170.889 128.133 170.051 128.133ZM190.545 121.57V125.207H193.074V128.105H190.545V135.488C190.545 136.035 190.65 136.427 190.859 136.664C191.069 136.901 191.47 137.02 192.062 137.02C192.5 137.02 192.887 136.988 193.225 136.924V139.918C192.45 140.155 191.652 140.273 190.832 140.273C188.061 140.273 186.648 138.874 186.594 136.076V128.105H184.434V125.207H186.594V121.57H190.545ZM199.131 126.82C200.179 125.562 201.496 124.934 203.082 124.934C206.29 124.934 207.917 126.798 207.963 130.525V140H204.012V130.635C204.012 129.787 203.829 129.163 203.465 128.762C203.1 128.352 202.494 128.146 201.646 128.146C200.489 128.146 199.65 128.593 199.131 129.486V140H195.18V119H199.131V126.82ZM217.752 140.273C215.583 140.273 213.814 139.608 212.447 138.277C211.089 136.947 210.41 135.174 210.41 132.959V132.576C210.41 131.09 210.697 129.764 211.271 128.598C211.846 127.422 212.657 126.52 213.705 125.891C214.762 125.253 215.965 124.934 217.314 124.934C219.338 124.934 220.928 125.572 222.086 126.848C223.253 128.124 223.836 129.933 223.836 132.275V133.889H214.416C214.544 134.855 214.926 135.63 215.564 136.213C216.212 136.796 217.027 137.088 218.012 137.088C219.534 137.088 220.723 136.536 221.58 135.434L223.521 137.607C222.929 138.446 222.127 139.102 221.115 139.576C220.104 140.041 218.982 140.273 217.752 140.273ZM217.301 128.133C216.517 128.133 215.879 128.397 215.387 128.926C214.904 129.454 214.594 130.211 214.457 131.195H219.953V130.881C219.935 130.006 219.698 129.331 219.242 128.857C218.786 128.374 218.139 128.133 217.301 128.133ZM246.381 132.74C246.381 135.019 245.861 136.846 244.822 138.223C243.792 139.59 242.398 140.273 240.639 140.273C239.144 140.273 237.936 139.754 237.016 138.715V145.688H233.064V125.207H236.729L236.865 126.656C237.822 125.508 239.071 124.934 240.611 124.934C242.434 124.934 243.852 125.608 244.863 126.957C245.875 128.306 246.381 130.165 246.381 132.535V132.74ZM242.43 132.453C242.43 131.077 242.184 130.015 241.691 129.268C241.208 128.52 240.502 128.146 239.572 128.146C238.333 128.146 237.48 128.62 237.016 129.568V135.625C237.499 136.6 238.36 137.088 239.6 137.088C241.486 137.088 242.43 135.543 242.43 132.453ZM253.012 140H249.047V119H253.012V140ZM264.852 140C264.669 139.645 264.537 139.202 264.455 138.674C263.498 139.74 262.254 140.273 260.723 140.273C259.273 140.273 258.07 139.854 257.113 139.016C256.165 138.177 255.691 137.12 255.691 135.844C255.691 134.276 256.27 133.073 257.428 132.234C258.594 131.396 260.276 130.972 262.473 130.963H264.291V130.115C264.291 129.432 264.113 128.885 263.758 128.475C263.411 128.064 262.86 127.859 262.104 127.859C261.438 127.859 260.914 128.019 260.531 128.338C260.158 128.657 259.971 129.094 259.971 129.65H256.02C256.02 128.794 256.284 128.001 256.812 127.271C257.341 126.542 258.089 125.973 259.055 125.562C260.021 125.143 261.105 124.934 262.309 124.934C264.132 124.934 265.576 125.394 266.643 126.314C267.718 127.226 268.256 128.511 268.256 130.17V136.582C268.265 137.986 268.461 139.048 268.844 139.768V140H264.852ZM261.584 137.252C262.167 137.252 262.705 137.124 263.197 136.869C263.689 136.605 264.054 136.254 264.291 135.816V133.273H262.814C260.837 133.273 259.784 133.957 259.656 135.324L259.643 135.557C259.643 136.049 259.816 136.454 260.162 136.773C260.508 137.092 260.982 137.252 261.584 137.252ZM274.928 125.207L275.051 126.916C276.108 125.594 277.525 124.934 279.303 124.934C280.87 124.934 282.037 125.394 282.803 126.314C283.568 127.235 283.96 128.611 283.979 130.443V140H280.027V130.539C280.027 129.701 279.845 129.094 279.48 128.721C279.116 128.338 278.51 128.146 277.662 128.146C276.55 128.146 275.716 128.62 275.16 129.568V140H271.209V125.207H274.928ZM293.795 140.273C291.626 140.273 289.857 139.608 288.49 138.277C287.132 136.947 286.453 135.174 286.453 132.959V132.576C286.453 131.09 286.74 129.764 287.314 128.598C287.889 127.422 288.7 126.52 289.748 125.891C290.805 125.253 292.008 124.934 293.357 124.934C295.381 124.934 296.971 125.572 298.129 126.848C299.296 128.124 299.879 129.933 299.879 132.275V133.889H290.459C290.587 134.855 290.969 135.63 291.607 136.213C292.255 136.796 293.07 137.088 294.055 137.088C295.577 137.088 296.766 136.536 297.623 135.434L299.564 137.607C298.972 138.446 298.17 139.102 297.158 139.576C296.146 140.041 295.025 140.273 293.795 140.273ZM293.344 128.133C292.56 128.133 291.922 128.397 291.43 128.926C290.947 129.454 290.637 130.211 290.5 131.195H295.996V130.881C295.978 130.006 295.741 129.331 295.285 128.857C294.829 128.374 294.182 128.133 293.344 128.133ZM306.865 121.57V125.207H309.395V128.105H306.865V135.488C306.865 136.035 306.97 136.427 307.18 136.664C307.389 136.901 307.79 137.02 308.383 137.02C308.82 137.02 309.208 136.988 309.545 136.924V139.918C308.77 140.155 307.973 140.273 307.152 140.273C304.382 140.273 302.969 138.874 302.914 136.076V128.105H300.754V125.207H302.914V121.57H306.865Z" fill="#1D2130"/>
<path d="M129.18 55H127.203L122.133 46.9297L122.133 55L120.156 55L120.156 43.625L122.133 43.625L127.219 51.7266L127.219 43.625L129.18 43.625L129.18 55ZM140.164 49.9219L135.492 49.9219V53.4219L140.953 53.4219V55L133.516 55L133.516 43.625L140.898 43.625V45.2188L135.492 45.2188V48.3594L140.164 48.3594L140.164 49.9219ZM148.477 47.7344L150.867 43.625L153.148 43.625L149.711 49.2656L153.227 55H150.922L148.477 50.8281L146.023 55L143.727 55L147.25 49.2656L143.805 43.625L146.086 43.625L148.477 47.7344ZM164.906 45.2188L161.359 45.2188L161.359 55H159.398L159.398 45.2188L155.883 45.2188V43.625L164.906 43.625V45.2188ZM180.57 49.9219L175.898 49.9219L175.898 53.4219L181.359 53.4219V55L173.922 55L173.922 43.625L181.305 43.625V45.2188L175.898 45.2188V48.3594L180.57 48.3594V49.9219ZM188.977 52.5234L191.867 43.625L194.039 43.625L189.945 55L188.031 55L183.953 43.625L186.117 43.625L188.977 52.5234ZM203.977 49.9219L199.305 49.9219L199.305 53.4219L204.766 53.4219V55L197.328 55L197.328 43.625L204.711 43.625V45.2188L199.305 45.2188V48.3594L203.977 48.3594V49.9219ZM217.398 55H215.422L210.352 46.9297L210.352 55L208.375 55L208.375 43.625L210.352 43.625L215.438 51.7266V43.625L217.398 43.625L217.398 55ZM229.719 45.2188L226.172 45.2188L226.172 55L224.211 55L224.211 45.2188L220.695 45.2188V43.625L229.719 43.625V45.2188ZM239.039 52.0703C239.039 51.5703 238.862 51.1849 238.508 50.9141C238.159 50.6432 237.526 50.3698 236.609 50.0938C235.693 49.8177 234.964 49.5104 234.422 49.1719C233.385 48.5208 232.867 47.6719 232.867 46.625C232.867 45.7083 233.24 44.9531 233.984 44.3594C234.734 43.7656 235.706 43.4688 236.898 43.4688C237.69 43.4688 238.396 43.6146 239.016 43.9063C239.635 44.1979 240.122 44.6146 240.477 45.1563C240.831 45.6927 241.008 46.2891 241.008 46.9453H239.039C239.039 46.3516 238.852 45.888 238.477 45.5547C238.107 45.2161 237.576 45.0469 236.883 45.0469C236.237 45.0469 235.734 45.1849 235.375 45.4609C235.021 45.737 234.844 46.1224 234.844 46.6172C234.844 47.0339 235.036 47.3828 235.422 47.6641C235.807 47.9401 236.443 48.2109 237.328 48.4766C238.214 48.737 238.924 49.0365 239.461 49.375C239.997 49.7083 240.391 50.0938 240.641 50.5313C240.891 50.9635 241.016 51.4714 241.016 52.0547C241.016 53.0026 240.651 53.7578 239.922 54.3203C239.198 54.8776 238.214 55.1563 236.969 55.1563C236.146 55.1563 235.388 55.0052 234.695 54.7031C234.008 54.3958 233.471 53.974 233.086 53.4375C232.706 52.901 232.516 52.276 232.516 51.5625L234.492 51.5625C234.492 52.2083 234.706 52.7083 235.133 53.0625C235.56 53.4167 236.172 53.5938 236.969 53.5938C237.656 53.5938 238.172 53.4557 238.516 53.1797C238.865 52.8984 239.039 52.5286 239.039 52.0703Z" fill="#1D2130"/>
<line x1="265" y1="48" x2="309" y2="48" stroke="#1D2130" stroke-width="2"/>
<path d="M65.5 77H42.5547V73.0859L53.9219 60.6875C55.5625 58.8594 56.7266 57.3359 57.4141 56.1172C58.1172 54.8828 58.4688 53.6484 58.4688 52.4141C58.4688 50.7891 58.0078 49.4766 57.0859 48.4766C56.1797 47.4766 54.9531 46.9766 53.4062 46.9766C51.5625 46.9766 50.1328 47.5391 49.1172 48.6641C48.1016 49.7891 47.5938 51.3281 47.5938 53.2812H41.8984C41.8984 51.2031 42.3672 49.3359 43.3047 47.6797C44.2578 46.0078 45.6094 44.7109 47.3594 43.7891C49.125 42.8672 51.1562 42.4062 53.4531 42.4062C56.7656 42.4062 59.375 43.2422 61.2812 44.9141C63.2031 46.5703 64.1641 48.8672 64.1641 51.8047C64.1641 53.5078 63.6797 55.2969 62.7109 57.1719C61.7578 59.0312 60.1875 61.1484 58 63.5234L49.6562 72.4531H65.5V77ZM76.4219 57.3359H79.8906C81.6406 57.3203 83.0234 56.8672 84.0391 55.9766C85.0703 55.0859 85.5859 53.7969 85.5859 52.1094C85.5859 50.4844 85.1562 49.2266 84.2969 48.3359C83.4531 47.4297 82.1562 46.9766 80.4062 46.9766C78.875 46.9766 77.6172 47.4219 76.6328 48.3125C75.6484 49.1875 75.1562 50.3359 75.1562 51.7578H69.4609C69.4609 50.0078 69.9219 48.4141 70.8438 46.9766C71.7812 45.5391 73.0781 44.4219 74.7344 43.625C76.4062 42.8125 78.2734 42.4062 80.3359 42.4062C83.7422 42.4062 86.4141 43.2656 88.3516 44.9844C90.3047 46.6875 91.2812 49.0625 91.2812 52.1094C91.2812 53.6406 90.7891 55.0859 89.8047 56.4453C88.8359 57.7891 87.5781 58.8047 86.0312 59.4922C87.9062 60.1328 89.3281 61.1406 90.2969 62.5156C91.2812 63.8906 91.7734 65.5312 91.7734 67.4375C91.7734 70.5 90.7188 72.9375 88.6094 74.75C86.5156 76.5625 83.7578 77.4688 80.3359 77.4688C77.0547 77.4688 74.3672 76.5938 72.2734 74.8438C70.1797 73.0938 69.1328 70.7656 69.1328 67.8594H74.8281C74.8281 69.3594 75.3281 70.5781 76.3281 71.5156C77.3438 72.4531 78.7031 72.9219 80.4062 72.9219C82.1719 72.9219 83.5625 72.4531 84.5781 71.5156C85.5938 70.5781 86.1016 69.2188 86.1016 67.4375C86.1016 65.6406 85.5703 64.2578 84.5078 63.2891C83.4453 62.3203 81.8672 61.8359 79.7734 61.8359H76.4219V57.3359Z" fill="#1D2130"/>
<path d="M47.1016 102.07C47.1016 101.57 46.9245 101.185 46.5703 100.914C46.2214 100.643 45.5885 100.37 44.6719 100.094C43.7552 99.8177 43.026 99.5104 42.4844 99.1719C41.4479 98.5208 40.9297 97.6719 40.9297 96.625C40.9297 95.7083 41.3021 94.9531 42.0469 94.3594C42.7969 93.7656 43.7682 93.4688 44.9609 93.4688C45.7526 93.4688 46.4583 93.6146 47.0781 93.9062C47.6979 94.1979 48.1849 94.6146 48.5391 95.1562C48.8932 95.6927 49.0703 96.2891 49.0703 96.9453H47.1016C47.1016 96.3516 46.9141 95.888 46.5391 95.5547C46.1693 95.2161 45.638 95.0469 44.9453 95.0469C44.2995 95.0469 43.7969 95.1849 43.4375 95.4609C43.0833 95.737 42.9062 96.1224 42.9062 96.6172C42.9062 97.0339 43.099 97.3828 43.4844 97.6641C43.8698 97.9401 44.5052 98.2109 45.3906 98.4766C46.276 98.737 46.987 99.0365 47.5234 99.375C48.0599 99.7083 48.4531 100.094 48.7031 100.531C48.9531 100.964 49.0781 101.471 49.0781 102.055C49.0781 103.003 48.7135 103.758 47.9844 104.32C47.2604 104.878 46.276 105.156 45.0312 105.156C44.2083 105.156 43.4505 105.005 42.7578 104.703C42.0703 104.396 41.5339 103.974 41.1484 103.438C40.7682 102.901 40.5781 102.276 40.5781 101.562H42.5547C42.5547 102.208 42.7682 102.708 43.1953 103.062C43.6224 103.417 44.2344 103.594 45.0312 103.594C45.7188 103.594 46.2344 103.456 46.5781 103.18C46.9271 102.898 47.1016 102.529 47.1016 102.07ZM59.4609 99.9219H54.7891V103.422H60.25V105H52.8125V93.625H60.1953V95.2188H54.7891V98.3594H59.4609V99.9219ZM65.8359 100.773V105H63.8594V93.625H68.2109C69.4818 93.625 70.4896 93.9557 71.2344 94.6172C71.9844 95.2786 72.3594 96.1536 72.3594 97.2422C72.3594 98.3568 71.9922 99.224 71.2578 99.8438C70.5286 100.464 69.5052 100.773 68.1875 100.773H65.8359ZM65.8359 99.1875H68.2109C68.9141 99.1875 69.4505 99.0234 69.8203 98.6953C70.1901 98.362 70.375 97.8828 70.375 97.2578C70.375 96.6432 70.1875 96.1536 69.8125 95.7891C69.4375 95.4193 68.9219 95.2292 68.2656 95.2188H65.8359V99.1875Z" fill="#1D2130"/>
</svg>
