<svg width="628" height="191" viewBox="0 0 628 191" fill="none" xmlns="http://www.w3.org/2000/svg">
<rect width="628" height="191" rx="8" fill="#BEF3C0"/>
<circle cx="552" cy="92" r="28" fill="white"/>
<path d="M561.457 92.7071C561.848 92.3166 561.848 91.6834 561.457 91.2929L555.093 84.9289C554.703 84.5384 554.069 84.5384 553.679 84.9289C553.288 85.3195 553.288 85.9526 553.679 86.3431L559.336 92L553.679 97.6569C553.288 98.0474 553.288 98.6805 553.679 99.0711C554.069 99.4616 554.703 99.4616 555.093 99.0711L561.457 92.7071ZM543.25 93L560.75 93L560.75 91L543.25 91L543.25 93Z" fill="#1D2130"/>
<path d="M136.281 92.2578L138.961 78.0938H143.049L138.633 98H134.504L131.264 84.6836L128.023 98H123.895L119.479 78.0938H123.566L126.26 92.2305L129.541 78.0938H133.014L136.281 92.2578ZM151.389 98.2734C149.219 98.2734 147.451 97.6081 146.084 96.2773C144.726 94.9466 144.047 93.1738 144.047 90.959V90.5762C144.047 89.0905 144.334 87.7643 144.908 86.5977C145.482 85.4219 146.294 84.5195 147.342 83.8906C148.399 83.2526 149.602 82.9336 150.951 82.9336C152.975 82.9336 154.565 83.5716 155.723 84.8477C156.889 86.1237 157.473 87.9329 157.473 90.2754V91.8887H148.053C148.18 92.8548 148.563 93.6296 149.201 94.2129C149.848 94.7962 150.664 95.0879 151.648 95.0879C153.171 95.0879 154.36 94.5365 155.217 93.4336L157.158 95.6074C156.566 96.446 155.764 97.1022 154.752 97.5762C153.74 98.041 152.619 98.2734 151.389 98.2734ZM150.938 86.1328C150.154 86.1328 149.516 86.3971 149.023 86.9258C148.54 87.4544 148.23 88.2109 148.094 89.1953H153.59V88.8809C153.572 88.0059 153.335 87.3314 152.879 86.8574C152.423 86.3743 151.776 86.1328 150.938 86.1328ZM166.537 98.2734C164.368 98.2734 162.6 97.6081 161.232 96.2773C159.874 94.9466 159.195 93.1738 159.195 90.959V90.5762C159.195 89.0905 159.482 87.7643 160.057 86.5977C160.631 85.4219 161.442 84.5195 162.49 83.8906C163.548 83.2526 164.751 82.9336 166.1 82.9336C168.123 82.9336 169.714 83.5716 170.871 84.8477C172.038 86.1237 172.621 87.9329 172.621 90.2754V91.8887H163.201C163.329 92.8548 163.712 93.6296 164.35 94.2129C164.997 94.7962 165.812 95.0879 166.797 95.0879C168.319 95.0879 169.508 94.5365 170.365 93.4336L172.307 95.6074C171.714 96.446 170.912 97.1022 169.9 97.5762C168.889 98.041 167.768 98.2734 166.537 98.2734ZM166.086 86.1328C165.302 86.1328 164.664 86.3971 164.172 86.9258C163.689 87.4544 163.379 88.2109 163.242 89.1953H168.738V88.8809C168.72 88.0059 168.483 87.3314 168.027 86.8574C167.572 86.3743 166.924 86.1328 166.086 86.1328ZM180.25 92.0664L178.828 93.4883V98H174.877V77H178.828V88.6348L179.594 87.6504L183.381 83.207H188.125L182.779 89.373L188.59 98H184.051L180.25 92.0664ZM194.004 98H190.039V77H194.004V98ZM202.795 92.4082L205.529 83.207H209.768L203.82 100.297L203.492 101.076C202.608 103.008 201.15 103.975 199.117 103.975C198.543 103.975 197.96 103.888 197.367 103.715V100.721L197.969 100.734C198.716 100.734 199.272 100.62 199.637 100.393C200.01 100.165 200.302 99.7865 200.512 99.2578L200.977 98.041L195.795 83.207H200.047L202.795 92.4082ZM224.451 95.0879C225.18 95.0879 225.773 94.8874 226.229 94.4863C226.684 94.0853 226.921 93.5521 226.939 92.8867H230.645C230.635 93.8893 230.362 94.8099 229.824 95.6484C229.286 96.4779 228.548 97.125 227.609 97.5898C226.68 98.0456 225.65 98.2734 224.52 98.2734C222.405 98.2734 220.737 97.6035 219.516 96.2637C218.294 94.9147 217.684 93.0553 217.684 90.6855V90.4258C217.684 88.1471 218.29 86.3288 219.502 84.9707C220.714 83.6126 222.378 82.9336 224.492 82.9336C226.342 82.9336 227.824 83.4622 228.936 84.5195C230.057 85.5677 230.626 86.9668 230.645 88.7168H226.939C226.921 87.9512 226.684 87.3314 226.229 86.8574C225.773 86.3743 225.171 86.1328 224.424 86.1328C223.503 86.1328 222.806 86.4701 222.332 87.1445C221.867 87.8099 221.635 88.8945 221.635 90.3984V90.8086C221.635 92.3307 221.867 93.4245 222.332 94.0898C222.797 94.7552 223.503 95.0879 224.451 95.0879ZM237.07 98H233.105V77H237.07V98ZM247.146 98.2734C244.977 98.2734 243.209 97.6081 241.842 96.2773C240.484 94.9466 239.805 93.1738 239.805 90.959V90.5762C239.805 89.0905 240.092 87.7643 240.666 86.5977C241.24 85.4219 242.051 84.5195 243.1 83.8906C244.157 83.2526 245.36 82.9336 246.709 82.9336C248.732 82.9336 250.323 83.5716 251.48 84.8477C252.647 86.1237 253.23 87.9329 253.23 90.2754V91.8887H243.811C243.938 92.8548 244.321 93.6296 244.959 94.2129C245.606 94.7962 246.422 95.0879 247.406 95.0879C248.928 95.0879 250.118 94.5365 250.975 93.4336L252.916 95.6074C252.324 96.446 251.521 97.1022 250.51 97.5762C249.498 98.041 248.377 98.2734 247.146 98.2734ZM246.695 86.1328C245.911 86.1328 245.273 86.3971 244.781 86.9258C244.298 87.4544 243.988 88.2109 243.852 89.1953H249.348V88.8809C249.329 88.0059 249.092 87.3314 248.637 86.8574C248.181 86.3743 247.534 86.1328 246.695 86.1328ZM264.059 98C263.876 97.6445 263.744 97.2025 263.662 96.6738C262.705 97.7402 261.461 98.2734 259.93 98.2734C258.48 98.2734 257.277 97.8542 256.32 97.0156C255.372 96.1771 254.898 95.1198 254.898 93.8438C254.898 92.276 255.477 91.0729 256.635 90.2344C257.801 89.3958 259.483 88.972 261.68 88.9629H263.498V88.1152C263.498 87.4316 263.32 86.8848 262.965 86.4746C262.618 86.0645 262.067 85.8594 261.311 85.8594C260.645 85.8594 260.121 86.0189 259.738 86.3379C259.365 86.6569 259.178 87.0944 259.178 87.6504H255.227C255.227 86.7936 255.491 86.0007 256.02 85.2715C256.548 84.5423 257.296 83.9727 258.262 83.5625C259.228 83.1432 260.312 82.9336 261.516 82.9336C263.339 82.9336 264.783 83.3939 265.85 84.3145C266.925 85.2259 267.463 86.5111 267.463 88.1699V94.582C267.472 95.9857 267.668 97.0475 268.051 97.7676V98H264.059ZM260.791 95.252C261.374 95.252 261.912 95.1243 262.404 94.8691C262.896 94.6048 263.261 94.2539 263.498 93.8164V91.2734H262.021C260.044 91.2734 258.991 91.957 258.863 93.3242L258.85 93.5566C258.85 94.0488 259.023 94.4544 259.369 94.7734C259.715 95.0924 260.189 95.252 260.791 95.252ZM274.135 83.207L274.258 84.916C275.315 83.5944 276.732 82.9336 278.51 82.9336C280.077 82.9336 281.244 83.3939 282.01 84.3145C282.775 85.235 283.167 86.6113 283.186 88.4434V98H279.234V88.5391C279.234 87.7005 279.052 87.0944 278.688 86.7207C278.323 86.3379 277.717 86.1465 276.869 86.1465C275.757 86.1465 274.923 86.6204 274.367 87.5684V98H270.416V83.207H274.135ZM290.363 98H286.398V83.207H290.363V98ZM286.166 79.3789C286.166 78.7865 286.362 78.2988 286.754 77.916C287.155 77.5332 287.697 77.3418 288.381 77.3418C289.055 77.3418 289.593 77.5332 289.994 77.916C290.395 78.2988 290.596 78.7865 290.596 79.3789C290.596 79.9805 290.391 80.4727 289.98 80.8555C289.579 81.2383 289.046 81.4297 288.381 81.4297C287.715 81.4297 287.178 81.2383 286.768 80.8555C286.367 80.4727 286.166 79.9805 286.166 79.3789ZM297.268 83.207L297.391 84.916C298.448 83.5944 299.865 82.9336 301.643 82.9336C303.21 82.9336 304.377 83.3939 305.143 84.3145C305.908 85.235 306.3 86.6113 306.318 88.4434V98H302.367V88.5391C302.367 87.7005 302.185 87.0944 301.82 86.7207C301.456 86.3379 300.85 86.1465 300.002 86.1465C298.89 86.1465 298.056 86.6204 297.5 87.5684V98H293.549V83.207H297.268ZM308.752 90.4941C308.752 88.2246 309.29 86.3971 310.365 85.0117C311.45 83.6263 312.908 82.9336 314.74 82.9336C316.363 82.9336 317.625 83.4896 318.527 84.6016L318.691 83.207H322.273V97.5078C322.273 98.8021 321.977 99.9277 321.385 100.885C320.801 101.842 319.977 102.571 318.91 103.072C317.844 103.574 316.595 103.824 315.164 103.824C314.079 103.824 313.022 103.605 311.992 103.168C310.962 102.74 310.183 102.184 309.654 101.5L311.404 99.0938C312.389 100.197 313.583 100.748 314.986 100.748C316.035 100.748 316.85 100.465 317.434 99.9004C318.017 99.3444 318.309 98.5514 318.309 97.5215V96.7285C317.397 97.7585 316.199 98.2734 314.713 98.2734C312.936 98.2734 311.495 97.5807 310.393 96.1953C309.299 94.8008 308.752 92.9551 308.752 90.6582V90.4941ZM312.703 90.7812C312.703 92.1211 312.972 93.1738 313.51 93.9395C314.048 94.696 314.786 95.0742 315.725 95.0742C316.928 95.0742 317.789 94.623 318.309 93.7207V87.5C317.78 86.5977 316.928 86.1465 315.752 86.1465C314.804 86.1465 314.057 86.5339 313.51 87.3086C312.972 88.0833 312.703 89.2409 312.703 90.7812ZM345.611 90.7402C345.611 93.0189 345.092 94.8464 344.053 96.2227C343.023 97.5898 341.628 98.2734 339.869 98.2734C338.374 98.2734 337.167 97.7539 336.246 96.7148V103.688H332.295V83.207H335.959L336.096 84.6562C337.053 83.5078 338.301 82.9336 339.842 82.9336C341.665 82.9336 343.082 83.6081 344.094 84.957C345.105 86.306 345.611 88.1654 345.611 90.5352V90.7402ZM341.66 90.4531C341.66 89.0768 341.414 88.015 340.922 87.2676C340.439 86.5202 339.732 86.1465 338.803 86.1465C337.563 86.1465 336.711 86.6204 336.246 87.5684V93.625C336.729 94.6003 337.59 95.0879 338.83 95.0879C340.717 95.0879 341.66 93.543 341.66 90.4531ZM356.385 86.9121C355.847 86.8392 355.373 86.8027 354.963 86.8027C353.468 86.8027 352.488 87.3086 352.023 88.3203V98H348.072V83.207H351.805L351.914 84.9707C352.707 83.6126 353.805 82.9336 355.209 82.9336C355.646 82.9336 356.057 82.9928 356.439 83.1113L356.385 86.9121ZM357.191 90.4668C357.191 88.9993 357.474 87.6914 358.039 86.543C358.604 85.3945 359.415 84.5059 360.473 83.877C361.539 83.248 362.774 82.9336 364.178 82.9336C366.174 82.9336 367.801 83.5443 369.059 84.7656C370.326 85.987 371.032 87.6458 371.178 89.7422L371.205 90.7539C371.205 93.0234 370.572 94.8464 369.305 96.2227C368.038 97.5898 366.338 98.2734 364.205 98.2734C362.072 98.2734 360.368 97.5898 359.092 96.2227C357.825 94.8555 357.191 92.9961 357.191 90.6445V90.4668ZM361.143 90.7539C361.143 92.1576 361.407 93.2331 361.936 93.9805C362.464 94.7188 363.221 95.0879 364.205 95.0879C365.162 95.0879 365.91 94.7233 366.447 93.9941C366.985 93.2559 367.254 92.0801 367.254 90.4668C367.254 89.0905 366.985 88.0241 366.447 87.2676C365.91 86.5111 365.153 86.1328 364.178 86.1328C363.212 86.1328 362.464 86.5111 361.936 87.2676C361.407 88.015 361.143 89.1771 361.143 90.7539ZM373.064 90.4941C373.064 88.2246 373.602 86.3971 374.678 85.0117C375.762 83.6263 377.221 82.9336 379.053 82.9336C380.675 82.9336 381.938 83.4896 382.84 84.6016L383.004 83.207H386.586V97.5078C386.586 98.8021 386.29 99.9277 385.697 100.885C385.114 101.842 384.289 102.571 383.223 103.072C382.156 103.574 380.908 103.824 379.477 103.824C378.392 103.824 377.335 103.605 376.305 103.168C375.275 102.74 374.495 102.184 373.967 101.5L375.717 99.0938C376.701 100.197 377.895 100.748 379.299 100.748C380.347 100.748 381.163 100.465 381.746 99.9004C382.329 99.3444 382.621 98.5514 382.621 97.5215V96.7285C381.71 97.7585 380.511 98.2734 379.025 98.2734C377.248 98.2734 375.808 97.5807 374.705 96.1953C373.611 94.8008 373.064 92.9551 373.064 90.6582V90.4941ZM377.016 90.7812C377.016 92.1211 377.285 93.1738 377.822 93.9395C378.36 94.696 379.098 95.0742 380.037 95.0742C381.24 95.0742 382.102 94.623 382.621 93.7207V87.5C382.092 86.5977 381.24 86.1465 380.064 86.1465C379.117 86.1465 378.369 86.5339 377.822 87.3086C377.285 88.0833 377.016 89.2409 377.016 90.7812ZM397.947 86.9121C397.41 86.8392 396.936 86.8027 396.525 86.8027C395.031 86.8027 394.051 87.3086 393.586 88.3203V98H389.635V83.207H393.367L393.477 84.9707C394.27 83.6126 395.368 82.9336 396.771 82.9336C397.209 82.9336 397.619 82.9928 398.002 83.1113L397.947 86.9121ZM408.023 98C407.841 97.6445 407.709 97.2025 407.627 96.6738C406.67 97.7402 405.426 98.2734 403.895 98.2734C402.445 98.2734 401.242 97.8542 400.285 97.0156C399.337 96.1771 398.863 95.1198 398.863 93.8438C398.863 92.276 399.442 91.0729 400.6 90.2344C401.766 89.3958 403.448 88.972 405.645 88.9629H407.463V88.1152C407.463 87.4316 407.285 86.8848 406.93 86.4746C406.583 86.0645 406.032 85.8594 405.275 85.8594C404.61 85.8594 404.086 86.0189 403.703 86.3379C403.329 86.6569 403.143 87.0944 403.143 87.6504H399.191C399.191 86.7936 399.456 86.0007 399.984 85.2715C400.513 84.5423 401.26 83.9727 402.227 83.5625C403.193 83.1432 404.277 82.9336 405.48 82.9336C407.303 82.9336 408.748 83.3939 409.814 84.3145C410.89 85.2259 411.428 86.5111 411.428 88.1699V94.582C411.437 95.9857 411.633 97.0475 412.016 97.7676V98H408.023ZM404.756 95.252C405.339 95.252 405.877 95.1243 406.369 94.8691C406.861 94.6048 407.226 94.2539 407.463 93.8164V91.2734H405.986C404.008 91.2734 402.956 91.957 402.828 93.3242L402.814 93.5566C402.814 94.0488 402.988 94.4544 403.334 94.7734C403.68 95.0924 404.154 95.252 404.756 95.252ZM418.168 83.207L418.291 84.8613C419.339 83.5762 420.757 82.9336 422.543 82.9336C424.448 82.9336 425.756 83.6855 426.467 85.1895C427.506 83.6855 428.987 82.9336 430.91 82.9336C432.514 82.9336 433.708 83.403 434.492 84.3418C435.276 85.2715 435.668 86.6751 435.668 88.5527V98H431.703V88.5664C431.703 87.7279 431.539 87.1172 431.211 86.7344C430.883 86.3424 430.304 86.1465 429.475 86.1465C428.29 86.1465 427.469 86.7116 427.014 87.8418L427.027 98H423.076V88.5801C423.076 87.7233 422.908 87.1035 422.57 86.7207C422.233 86.3379 421.659 86.1465 420.848 86.1465C419.727 86.1465 418.915 86.6113 418.414 87.541V98H414.463V83.207H418.168Z" fill="#1D2130"/>
<path d="M129.18 55H127.203L122.133 46.9297L122.133 55L120.156 55L120.156 43.625L122.133 43.625L127.219 51.7266L127.219 43.625L129.18 43.625L129.18 55ZM140.164 49.9219L135.492 49.9219V53.4219L140.953 53.4219V55L133.516 55L133.516 43.625L140.898 43.625V45.2188L135.492 45.2188V48.3594L140.164 48.3594L140.164 49.9219ZM148.477 47.7344L150.867 43.625L153.148 43.625L149.711 49.2656L153.227 55H150.922L148.477 50.8281L146.023 55L143.727 55L147.25 49.2656L143.805 43.625L146.086 43.625L148.477 47.7344ZM164.906 45.2188L161.359 45.2188L161.359 55H159.398L159.398 45.2188L155.883 45.2188V43.625L164.906 43.625V45.2188ZM180.57 49.9219L175.898 49.9219L175.898 53.4219L181.359 53.4219V55L173.922 55L173.922 43.625L181.305 43.625V45.2188L175.898 45.2188V48.3594L180.57 48.3594V49.9219ZM188.977 52.5234L191.867 43.625L194.039 43.625L189.945 55L188.031 55L183.953 43.625L186.117 43.625L188.977 52.5234ZM203.977 49.9219L199.305 49.9219L199.305 53.4219L204.766 53.4219V55L197.328 55L197.328 43.625L204.711 43.625V45.2188L199.305 45.2188V48.3594L203.977 48.3594V49.9219ZM217.398 55H215.422L210.352 46.9297L210.352 55L208.375 55L208.375 43.625L210.352 43.625L215.438 51.7266V43.625L217.398 43.625L217.398 55ZM229.719 45.2188L226.172 45.2188L226.172 55L224.211 55L224.211 45.2188L220.695 45.2188V43.625L229.719 43.625V45.2188ZM239.039 52.0703C239.039 51.5703 238.862 51.1849 238.508 50.9141C238.159 50.6432 237.526 50.3698 236.609 50.0938C235.693 49.8177 234.964 49.5104 234.422 49.1719C233.385 48.5208 232.867 47.6719 232.867 46.625C232.867 45.7083 233.24 44.9531 233.984 44.3594C234.734 43.7656 235.706 43.4688 236.898 43.4688C237.69 43.4688 238.396 43.6146 239.016 43.9063C239.635 44.1979 240.122 44.6146 240.477 45.1563C240.831 45.6927 241.008 46.2891 241.008 46.9453H239.039C239.039 46.3516 238.852 45.888 238.477 45.5547C238.107 45.2161 237.576 45.0469 236.883 45.0469C236.237 45.0469 235.734 45.1849 235.375 45.4609C235.021 45.737 234.844 46.1224 234.844 46.6172C234.844 47.0339 235.036 47.3828 235.422 47.6641C235.807 47.9401 236.443 48.2109 237.328 48.4766C238.214 48.737 238.924 49.0365 239.461 49.375C239.997 49.7083 240.391 50.0938 240.641 50.5313C240.891 50.9635 241.016 51.4714 241.016 52.0547C241.016 53.0026 240.651 53.7578 239.922 54.3203C239.198 54.8776 238.214 55.1563 236.969 55.1563C236.146 55.1563 235.388 55.0052 234.695 54.7031C234.008 54.3958 233.471 53.974 233.086 53.4375C232.706 52.901 232.516 52.276 232.516 51.5625L234.492 51.5625C234.492 52.2083 234.706 52.7083 235.133 53.0625C235.56 53.4167 236.172 53.5938 236.969 53.5938C237.656 53.5938 238.172 53.4557 238.516 53.1797C238.865 52.8984 239.039 52.5286 239.039 52.0703Z" fill="#1D2130"/>
<line x1="265" y1="48" x2="309" y2="48" stroke="#1D2130" stroke-width="2"/>
<path d="M65.5 77H42.5547V73.0859L53.9219 60.6875C55.5625 58.8594 56.7266 57.3359 57.4141 56.1172C58.1172 54.8828 58.4688 53.6484 58.4688 52.4141C58.4688 50.7891 58.0078 49.4766 57.0859 48.4766C56.1797 47.4766 54.9531 46.9766 53.4062 46.9766C51.5625 46.9766 50.1328 47.5391 49.1172 48.6641C48.1016 49.7891 47.5938 51.3281 47.5938 53.2812H41.8984C41.8984 51.2031 42.3672 49.3359 43.3047 47.6797C44.2578 46.0078 45.6094 44.7109 47.3594 43.7891C49.125 42.8672 51.1562 42.4062 53.4531 42.4062C56.7656 42.4062 59.375 43.2422 61.2812 44.9141C63.2031 46.5703 64.1641 48.8672 64.1641 51.8047C64.1641 53.5078 63.6797 55.2969 62.7109 57.1719C61.7578 59.0312 60.1875 61.1484 58 63.5234L49.6562 72.4531H65.5V77ZM71.3594 60.0781L73.2109 42.875H91.5391V47.7969H77.9453L77.0078 55.9531C78.5859 55.0469 80.3672 54.5938 82.3516 54.5938C85.6016 54.5938 88.125 55.6328 89.9219 57.7109C91.7344 59.7891 92.6406 62.5859 92.6406 66.1016C92.6406 69.5703 91.6406 72.3359 89.6406 74.3984C87.6406 76.4453 84.8984 77.4688 81.4141 77.4688C78.2891 77.4688 75.6953 76.5859 73.6328 74.8203C71.5859 73.0391 70.4766 70.6953 70.3047 67.7891H75.8125C76.0312 69.4453 76.625 70.7188 77.5938 71.6094C78.5625 72.4844 79.8281 72.9219 81.3906 72.9219C83.1406 72.9219 84.5 72.2969 85.4688 71.0469C86.4531 69.7969 86.9453 68.0938 86.9453 65.9375C86.9453 63.8594 86.4062 62.2188 85.3281 61.0156C84.25 59.7969 82.7656 59.1875 80.875 59.1875C79.8438 59.1875 78.9688 59.3281 78.25 59.6094C77.5312 59.875 76.75 60.4062 75.9062 61.2031L71.3594 60.0781Z" fill="#1D2130"/>
<path d="M47.1016 102.07C47.1016 101.57 46.9245 101.185 46.5703 100.914C46.2214 100.643 45.5885 100.37 44.6719 100.094C43.7552 99.8177 43.026 99.5104 42.4844 99.1719C41.4479 98.5208 40.9297 97.6719 40.9297 96.625C40.9297 95.7083 41.3021 94.9531 42.0469 94.3594C42.7969 93.7656 43.7682 93.4688 44.9609 93.4688C45.7526 93.4688 46.4583 93.6146 47.0781 93.9062C47.6979 94.1979 48.1849 94.6146 48.5391 95.1562C48.8932 95.6927 49.0703 96.2891 49.0703 96.9453H47.1016C47.1016 96.3516 46.9141 95.888 46.5391 95.5547C46.1693 95.2161 45.638 95.0469 44.9453 95.0469C44.2995 95.0469 43.7969 95.1849 43.4375 95.4609C43.0833 95.737 42.9062 96.1224 42.9062 96.6172C42.9062 97.0339 43.099 97.3828 43.4844 97.6641C43.8698 97.9401 44.5052 98.2109 45.3906 98.4766C46.276 98.737 46.987 99.0365 47.5234 99.375C48.0599 99.7083 48.4531 100.094 48.7031 100.531C48.9531 100.964 49.0781 101.471 49.0781 102.055C49.0781 103.003 48.7135 103.758 47.9844 104.32C47.2604 104.878 46.276 105.156 45.0312 105.156C44.2083 105.156 43.4505 105.005 42.7578 104.703C42.0703 104.396 41.5339 103.974 41.1484 103.438C40.7682 102.901 40.5781 102.276 40.5781 101.562H42.5547C42.5547 102.208 42.7682 102.708 43.1953 103.062C43.6224 103.417 44.2344 103.594 45.0312 103.594C45.7188 103.594 46.2344 103.456 46.5781 103.18C46.9271 102.898 47.1016 102.529 47.1016 102.07ZM59.4609 99.9219H54.7891V103.422H60.25V105H52.8125V93.625H60.1953V95.2188H54.7891V98.3594H59.4609V99.9219ZM65.8359 100.773V105H63.8594V93.625H68.2109C69.4818 93.625 70.4896 93.9557 71.2344 94.6172C71.9844 95.2786 72.3594 96.1536 72.3594 97.2422C72.3594 98.3568 71.9922 99.224 71.2578 99.8438C70.5286 100.464 69.5052 100.773 68.1875 100.773H65.8359ZM65.8359 99.1875H68.2109C68.9141 99.1875 69.4505 99.0234 69.8203 98.6953C70.1901 98.362 70.375 97.8828 70.375 97.2578C70.375 96.6432 70.1875 96.1536 69.8125 95.7891C69.4375 95.4193 68.9219 95.2292 68.2656 95.2188H65.8359V99.1875Z" fill="#1D2130"/>
</svg>
